<?xml version="1.0" encoding="UTF-8"?> <svg xmlns="http://www.w3.org/2000/svg" width="394.853" height="140.16" viewBox="0 0 394.853 140.16"><path d="M5.1,57.1h6.124v6.124h5.67V57.1h6.123V75.924h-5.67V69.8H11.224v6.124H5.1V57.1Zm26.762,6.124h-5.67V57.1H43.655v6.124h-5.67v12.7H31.862v-12.7ZM46.15,57.1h6.577l3.856,6.577L60.438,57.1h6.577V75.924H60.892v-9.3L56.583,73.2h0l-4.309-6.577v9.3H46.15Zm24.721,0h6.123V69.8H85.84v6.124H70.417L70.871,57.1Z" transform="translate(4.199 -57.1)" fill="#ff9704"></path><path d="M1,69.2l9.3,101.378,40.37,11.34,40.823-11.34L100.79,69.2ZM81.286,93.467l-.454,6.124-.454,2.495h-47.4l1.361,12.7H79.7l-.454,3.4L76.07,151.073v2.268l-25.4,7.031h0l-25.4-7.031L23.453,133.61H35.7l.907,9.979,14.061,3.856h0l14.061-3.856,1.361-16.329H23L19.824,93.467l-.454-3.4H81.513Z" transform="translate(-1 -41.758)" fill="#ff9704"></path><path d="M81.477,69.8V63.677h8.845V57.1H74.9V75.924H90.322V69.8Zm24.494-6.124h6.123V57.1H96.672v6.577L102.8,69.8H96.672v6.124h15.422V69.8l-6.123-6.124Zm21.772,0h6.124V57.1H118.445v6.577l6.124,6.124h-6.124v6.124h15.422V69.8l-6.124-6.124Z" transform="translate(92.702 -57.1)" fill="#0779c2"></path><path d="M66,69.2l9.3,101.832,40.823,10.886,40.823-10.886,9.3-101.832Zm80.966,20.638-1.361,12.247h0L115.9,115.013h29.03l-3.4,38.1L115.9,160.6h0l-25.4-7.484L88.68,133.837h12.7l.907,9.979,13.608,3.4h0l14.061-3.856.907-16.329H87.772l-.907-11.793,29.03-12.247h0l1.814-.907H85.731L84.371,89.838h62.6Z" transform="translate(81.418 -41.758)" fill="#0779c2"></path><path d="M153.118,63.224v6.124h-3.856V67.079H144.5v8.845h15.422V57.1h-6.577v6.124h-.227Zm22.453.454h6.124V57.1H166.272v6.577L172.4,69.8h-6.124v6.124h15.422V69.8l-6.124-6.124Z" transform="translate(180.953 -57.1)" fill="#52cff5"></path><path d="M131.1,68.9l9.3,102.058,40.37,11.34,40.823-11.34L230.89,68.9Zm46.04,88.9-29.484-7.938V138.073l19.278,5.216V91.126h9.979C177.14,91.126,177.14,157.8,177.14,157.8ZM215.7,102.466H194.6v17.463l19.731-2.268-2.722,32.432-26.762,7.031V145.33l19.278-5.216.454-9.752-19.278,3.4-.454-43.318h32.205Z" transform="translate(163.962 -42.138)" fill="#52cff5"></path></svg> 